<svg version="1.1" id="Layer_1" xmlns="http://www.w3.org/2000/svg" xmlns:xlink="http://www.w3.org/1999/xlink" x="0px" y="0px"
	 width="100%" viewBox="0 0 320 320" enable-background="new 0 0 320 320" xml:space="preserve">
<path fill="#000000" opacity="1.000000" stroke="none" 
	d="
M137.224609,320.730408 
	C92.903435,321.000000 48.806744,320.958252 4.710550,321.086670 
	C1.506783,321.096008 0.919075,320.259216 0.926269,317.222015 
	C1.033083,272.127319 1.000000,227.032272 1.000000,181.468658 
	C4.513660,179.605515 4.492713,182.538712 4.844247,184.425323 
	C5.417688,187.502869 5.414515,190.718597 8.375798,192.758179 
	C8.633670,192.935806 8.911636,193.342972 8.851599,193.601013 
	C8.030709,197.129288 9.371901,199.806015 11.150422,202.912079 
	C12.865583,205.907501 14.415651,209.831436 14.220461,213.253189 
	C13.719865,222.028748 18.159618,228.814484 21.834766,235.998688 
	C22.428928,237.160156 22.756468,238.633759 24.201914,239.040680 
	C26.780228,239.766571 27.982634,241.480164 28.377787,244.031433 
	C28.776264,246.604233 31.469925,247.376038 33.001343,249.518417 
	C33.427887,249.916641 33.589203,250.084946 33.937332,250.546280 
	C35.728973,253.694366 35.738949,257.664764 40.059883,258.967285 
	C40.810452,259.306030 41.179638,259.594513 41.706833,260.230286 
	C41.770687,265.469879 44.213753,268.677795 48.457344,271.009155 
	C51.401165,272.626434 53.006100,275.640259 54.767254,278.667480 
	C54.883583,278.848328 55.249290,278.977997 55.446182,278.895294 
	C56.216583,278.357666 56.856815,278.048218 57.913963,277.910767 
	C58.471573,277.936859 58.696930,277.975494 59.249611,278.140167 
	C59.778370,278.391724 59.979801,278.517181 60.445957,278.883026 
	C60.851650,279.314728 60.992619,279.505981 61.281837,280.018616 
	C62.282761,282.254669 62.695320,284.323151 65.449806,284.826599 
	C67.174393,285.141815 68.476242,286.953674 69.595795,288.286499 
	C72.742737,292.032867 76.475105,294.347473 81.704437,294.808228 
	C82.192230,295.139862 82.370804,295.296417 82.766510,295.734985 
	C83.216118,296.453247 83.325844,297.276459 83.570244,297.323090 
	C88.163544,298.199158 90.750610,303.099701 95.824944,303.214996 
	C98.023369,303.264954 101.134300,303.411987 100.845917,307.028809 
	C100.714859,308.672638 101.851570,307.797363 102.290916,307.959717 
	C105.526947,309.155304 108.858826,310.084167 112.389374,311.499878 
	C112.948509,311.664185 113.169518,311.740112 113.696350,311.986450 
	C118.222946,313.366180 122.309494,315.005280 126.916962,313.398193 
	C129.348816,312.549927 131.948502,312.894928 132.504608,316.349823 
	C132.537476,316.554016 132.583588,316.569061 133.258987,316.513733 
	C136.122711,316.279144 137.667191,317.430786 137.224609,320.730408 
z"/>
<path fill="#000000" opacity="1.000000" stroke="none" 
	d="
M1.243618,143.301361 
	C1.000000,96.905312 1.039367,50.810516 0.914476,4.716164 
	C0.905833,1.526146 1.721730,0.917737 4.772557,0.925153 
	C49.535728,1.033961 94.299248,1.000000 139.531342,1.000000 
	C141.091614,4.782512 137.899323,4.407964 135.981552,4.890390 
	C127.116463,7.120435 118.049553,8.416572 109.384171,11.597877 
	C89.152710,19.025414 70.777145,29.294325 54.955051,44.181198 
	C47.148178,51.526619 40.050922,59.385105 33.649837,67.904694 
	C30.999746,71.431870 27.851088,74.825432 27.926807,79.792038 
	C27.946177,81.062477 27.083721,82.283463 26.059401,83.227562 
	C17.607182,91.017754 14.299827,101.299866 12.176082,112.123619 
	C11.948135,113.285355 12.024712,114.568985 10.938919,115.227623 
	C8.435279,116.746307 8.542600,119.298149 8.901417,121.450104 
	C9.375916,124.295830 8.287836,126.274193 6.578282,128.601974 
	C6.392704,129.177139 6.322065,129.412491 6.121449,129.999863 
	C5.475696,133.368729 4.854149,136.111176 5.995759,139.432800 
	C7.550419,143.956192 6.242975,148.765244 3.581932,153.165771 
	C2.705361,152.969971 2.368379,152.579681 2.116722,151.673889 
	C1.743084,148.733780 2.500334,146.102982 1.243618,143.301361 
z"/>
<path fill="#000000" opacity="1.000000" stroke="none" 
	d="
M181.781265,1.351230 
	C227.094986,1.000000 272.190094,1.040302 317.284698,0.914264 
	C320.476593,0.905342 321.082275,1.724338 321.074738,4.773222 
	C320.965637,48.869503 321.000000,92.966133 321.000000,137.531342 
	C318.389740,139.186829 317.948273,137.344299 317.557526,135.503372 
	C316.716003,131.538864 315.940033,127.560600 314.958923,123.224747 
	C311.538208,109.520874 306.662781,96.813812 299.649597,84.587234 
	C299.127380,83.961617 298.857574,83.589905 298.427795,82.930275 
	C298.132690,82.479263 298.027405,82.294800 297.804871,81.822739 
	C297.519379,80.966919 297.325073,80.409576 296.836487,79.682312 
	C296.547668,79.319214 296.428528,79.178131 296.154907,78.810646 
	C295.814758,78.276451 295.640869,77.962173 295.320953,77.426300 
	C295.054199,77.067245 294.948059,76.921768 294.680054,76.553223 
	C294.409454,76.176575 294.300751,76.023010 294.034363,75.627258 
	C293.786987,75.211151 293.697266,75.037231 293.484375,74.594193 
	C293.060211,73.808975 292.737030,73.307304 292.169312,72.616035 
	C291.808350,72.272354 291.661621,72.138046 291.322571,71.778145 
	C290.906189,71.238228 290.703308,70.910957 290.367554,70.340637 
	C290.110809,69.960205 290.014130,69.806168 289.783081,69.420776 
	C289.560913,69.037857 289.473145,68.886299 289.246460,68.515457 
	C289.015015,68.151840 288.922516,68.007507 288.693237,67.648087 
	C288.466522,67.290352 288.376617,67.147713 288.152069,66.792770 
	C287.926697,66.440521 287.835938,66.300598 287.605347,65.953720 
	C287.367950,65.610985 287.270386,65.475212 286.851929,64.944855 
	C286.413818,64.421593 286.296631,64.292923 285.808167,63.774109 
	C285.313751,63.246391 285.190582,63.108826 284.740082,62.514969 
	C283.934998,61.468609 283.634979,60.765430 283.009094,59.939613 
	C282.674042,59.609459 282.528046,59.489014 282.167236,59.181007 
	C281.814575,58.861797 281.676636,58.730152 281.131714,58.192432 
	C280.585815,57.649712 280.446930,57.513069 279.879456,56.955139 
	C279.309570,56.382168 279.168243,56.230488 278.649353,55.565857 
	C277.241211,53.915695 276.596161,52.496346 275.336609,51.139534 
	C274.948608,50.783981 274.791290,50.646732 274.381531,50.329823 
	C273.975800,50.016216 273.822449,49.882267 273.240967,49.330093 
	C272.672119,48.773994 272.531311,48.636116 271.961060,48.091637 
	C271.389160,47.546326 271.246704,47.407616 270.722168,46.809113 
	C269.519531,45.437637 268.349304,44.974850 267.239349,43.938705 
	C266.831818,43.635448 266.666840,43.516788 266.252228,43.222893 
	C265.849579,42.915367 265.696564,42.783077 265.137085,42.211918 
	C264.508118,41.452469 264.267395,41.146355 263.780304,40.672047 
	C263.392273,40.378651 263.228333,40.271133 262.822418,39.991383 
	C262.416962,39.702351 262.253540,39.585560 261.579712,39.116322 
	C260.891449,38.641994 260.713654,38.520107 260.266418,38.207108 
	C250.677307,30.706924 240.805527,24.259998 229.923462,18.759117 
	C228.666245,18.038046 227.724487,17.445812 226.390991,16.895252 
	C225.905365,16.644232 225.712494,16.542273 225.225708,16.296707 
	C223.877350,15.418689 222.871094,14.587394 221.184937,14.396492 
	C220.630524,14.278234 220.408691,14.217411 219.869110,14.011358 
	C216.219131,11.806624 212.462830,11.205999 208.291962,10.655963 
	C200.414001,8.498856 192.782257,6.955060 185.248856,5.012663 
	C183.434509,4.544855 181.641281,4.087482 181.781265,1.351230 
z"/>
<path fill="#000000" opacity="1.000000" stroke="none" 
	d="
M320.635651,184.773621 
	C321.000000,229.095276 320.958740,273.190674 321.085968,317.285583 
	C321.095184,320.479309 320.273071,321.082275 317.226135,321.074615 
	C273.796753,320.965179 230.366989,321.000000 186.468658,321.000000 
	C184.751465,317.073395 188.003952,317.053741 190.158630,316.573303 
	C197.802322,314.868896 205.400757,313.060760 212.838745,310.560852 
	C241.474197,300.936279 264.685944,283.709473 283.563995,260.357788 
	C284.821259,258.802551 286.113251,257.276245 287.674561,255.533691 
	C288.350586,254.796204 288.845154,254.355408 289.494720,253.612701 
	C289.853546,253.207718 290.003510,253.051926 290.405518,252.695724 
	C291.879181,251.561356 292.600616,250.267914 293.359161,248.615051 
	C293.550323,248.113739 293.615936,247.908295 293.807648,247.403351 
	C294.469391,246.169510 295.186646,245.333923 295.601868,243.950485 
	C297.808075,240.008270 300.041992,236.473053 302.375793,232.606567 
	C303.756836,231.032043 304.484650,229.465103 305.276367,227.575729 
	C305.423309,227.068146 305.469757,226.861740 305.575012,226.342712 
	C305.758240,225.625992 305.904816,225.230118 306.193726,224.550476 
	C306.405609,224.068878 306.497742,223.879395 306.753845,223.420868 
	C307.157715,222.798187 307.378479,222.432892 307.727539,221.759521 
	C309.077972,218.214981 310.626038,215.096008 311.567627,211.385788 
	C311.802155,210.370270 312.119781,209.748489 312.409302,208.745880 
	C312.541779,208.172333 312.593964,207.940796 312.772888,207.373596 
	C313.915161,203.766281 314.854187,200.476044 315.273590,196.683014 
	C315.601990,192.775818 315.510193,189.159622 317.654480,185.630508 
	C318.593781,184.690781 319.353363,184.376968 320.635651,184.773621 
z"/>
<path fill="#120E26" opacity="1.000000" stroke="none" 
	d="
M318.901428,185.662842 
	C317.342743,189.299454 318.568085,193.106674 316.935364,196.789795 
	C315.504486,200.638565 314.054169,204.047806 314.025513,208.182739 
	C314.039703,208.531891 313.998047,208.503204 314.023224,208.500870 
	C313.617798,209.271301 313.027527,209.943192 312.498718,211.045944 
	C311.763733,214.472565 310.278351,217.280258 309.129150,220.537567 
	C308.904144,221.211548 308.762482,221.583145 308.501495,222.205399 
	C308.406677,222.647614 308.405945,222.829376 308.404175,223.280884 
	C308.320312,223.709091 308.237488,223.867569 308.092224,224.286896 
	C308.029724,224.547729 307.994385,224.490921 308.024139,224.475616 
	C307.861023,224.953491 307.600861,225.408157 307.136658,226.194427 
	C306.999939,226.564575 307.048157,226.516861 307.067993,226.544373 
	C305.791382,228.501266 304.368103,230.373154 304.116638,233.159500 
	C301.715820,237.202179 299.446594,240.921234 296.986908,244.948074 
	C295.683258,245.640717 295.545410,246.635681 295.173431,247.829269 
	C295.008728,248.071335 294.999542,248.003433 295.033752,248.001343 
	C293.540833,249.633423 292.423309,251.539963 291.217163,253.787262 
	C291.031647,254.063568 291.007446,254.005005 291.039124,254.005951 
	C290.579987,254.400513 290.513123,254.990341 290.180786,255.767273 
	C283.141418,263.973724 276.547607,272.212799 268.788361,279.354248 
	C255.723267,291.379059 241.351822,301.236816 224.686935,307.974548 
	C215.658188,311.624939 206.574127,314.748657 197.233185,317.326172 
	C193.534241,318.346893 189.318558,317.509125 186.066284,320.688965 
	C184.285645,321.000000 182.571289,321.000000 180.428467,321.000000 
	C179.254456,320.172089 178.435928,319.783875 177.211075,320.786072 
	C176.250000,321.000000 175.500000,321.000000 174.375000,321.000000 
	C173.133713,320.194885 172.059036,320.607880 170.684479,320.499329 
	C168.718399,320.499268 167.141388,320.499268 165.164307,320.499298 
	C162.346313,320.499268 159.928391,320.499237 157.114380,320.499329 
	C155.937439,320.499390 155.156601,320.499329 153.994720,320.499329 
	C152.610092,320.510376 151.605347,320.465820 150.301727,320.780396 
	C147.958328,321.000000 145.916672,321.000000 143.437500,321.000000 
	C141.987900,319.725128 140.955444,318.594574 139.247070,320.752869 
	C138.555557,321.000000 138.111099,321.000000 137.333328,321.000000 
	C136.098709,315.784882 131.480148,319.463257 129.116989,317.915558 
	C129.055832,316.235657 131.763962,317.400574 131.147995,315.764191 
	C130.721298,314.630585 128.857651,314.060303 128.188416,314.644165 
	C122.820885,319.327301 118.203300,314.713196 113.154747,313.336853 
	C113.236572,312.770142 113.461014,312.529297 113.670494,312.274933 
	C113.880066,312.020447 113.810768,312.105621 113.232338,312.766174 
	C107.965843,312.750732 103.633026,310.515137 99.198166,308.384338 
	C95.776772,306.740509 101.684967,306.834473 99.540154,305.916351 
	C97.885841,305.208191 96.412537,303.731232 94.153221,305.080566 
	C92.051674,306.335724 89.786346,305.581665 89.595703,302.935669 
	C89.407425,300.322388 88.818649,300.487610 86.609703,301.089355 
	C83.076111,302.051941 81.457161,300.091888 82.250046,296.004517 
	C85.333626,293.743378 87.849472,295.545532 90.279778,296.811920 
	C103.666412,303.787354 117.802750,308.620270 132.606171,311.367035 
	C162.531921,316.919769 191.519073,313.517792 219.602997,301.844574 
	C239.266449,293.671356 256.507996,281.885864 270.968048,266.367340 
	C294.613373,240.991135 308.667694,211.066544 312.026978,176.331009 
	C316.186798,133.317535 303.683716,95.409172 276.434082,62.339348 
	C264.933075,48.381855 250.825531,37.173210 234.742676,27.969051 
	C232.046814,24.801254 228.722946,23.474094 224.864395,22.358406 
	C223.723999,22.109407 223.031372,21.766903 222.050385,21.096519 
	C209.738251,14.807745 196.863861,11.693860 183.731262,9.599605 
	C174.740860,8.165906 165.680695,7.196567 156.533051,7.473992 
	C154.027054,7.549994 151.561050,7.673679 148.787048,8.672846 
	C147.564941,9.039814 146.728058,9.027317 145.483932,8.836595 
	C138.377319,9.058338 131.793686,10.072601 125.023621,12.239879 
	C116.170967,15.782225 107.266289,17.980175 98.869926,21.699837 
	C84.127365,28.230921 70.830673,36.848839 58.810097,47.598469 
	C31.557642,71.969498 15.071588,102.322784 9.553469,138.262848 
	C5.176191,166.772491 8.478133,194.657593 20.031530,221.358063 
	C23.081818,228.407425 26.537363,235.201736 30.577290,241.732635 
	C32.110912,244.211868 34.254593,246.592590 33.529671,250.267334 
	C30.016941,250.608658 29.183964,246.521454 25.914181,246.115448 
	C24.883574,245.987488 26.284342,244.911713 26.544682,244.268753 
	C27.178534,242.703384 26.250681,240.932800 25.252651,240.984955 
	C19.977034,241.260635 20.025070,236.450211 18.343931,233.723587 
	C15.685382,229.411728 12.102090,224.695969 12.494691,219.779861 
	C12.914794,214.519394 11.758627,209.968323 10.174610,205.349991 
	C9.706912,203.986359 11.330940,199.193741 6.567764,201.856827 
	C6.363788,200.227478 3.803291,198.607819 6.523289,196.968704 
	C7.945117,196.111877 8.500088,194.208740 7.242144,193.803314 
	C1.991266,192.111115 3.468715,187.822525 3.044155,184.252533 
	C2.905641,183.087814 2.984637,181.893707 1.367513,181.119781 
	C1.000000,178.299988 1.000000,175.599976 1.000000,172.449982 
	C1.747871,171.249237 1.420788,170.290634 1.500648,169.067581 
	C1.500687,167.808426 1.500774,166.892410 1.500682,165.632477 
	C1.489515,164.372009 1.536934,163.453842 1.213195,162.269989 
	C1.000000,161.555557 1.000000,161.111099 1.000000,160.333328 
	C1.699582,159.333725 1.436421,158.461517 1.500831,157.347122 
	C1.424862,155.969528 1.641450,154.963440 2.319833,153.773697 
	C4.209589,148.493881 6.417058,143.557205 3.538975,138.122498 
	C2.002757,135.221634 4.281497,132.421753 4.745937,129.261536 
	C5.011350,128.988022 5.263872,129.267197 5.126189,129.138702 
	C5.750736,127.788689 3.184231,124.642502 7.225916,125.230186 
	C7.812074,125.315407 7.681531,124.237946 7.508894,123.574097 
	C6.112671,118.205139 6.187305,118.029053 10.247910,114.282776 
	C10.550417,114.003685 10.769682,113.429169 10.733393,113.017960 
	C9.738579,101.744843 17.166443,93.455635 21.026926,83.908188 
	C21.456507,82.845787 22.366989,82.586815 23.482334,82.655724 
	C25.417944,82.775314 26.716867,80.963188 26.365210,79.893211 
	C24.357489,73.784370 29.229181,70.501595 31.900751,66.717903 
	C40.156212,55.025826 50.134300,44.746124 61.225094,35.755951 
	C75.438431,24.234638 91.402382,15.764710 108.716957,9.569996 
	C118.912964,5.922126 129.674927,5.016708 139.926834,1.308874 
	C143.692902,1.000000 147.385818,1.000000 151.539368,1.000000 
	C157.727127,2.067253 163.501587,1.285325 169.626007,1.220846 
	C173.692902,1.000000 177.385818,1.000000 181.539368,1.000000 
	C182.235199,1.828238 182.609543,2.645295 183.532394,2.754247 
	C192.047089,3.759493 200.157028,6.543283 208.744629,8.650207 
	C212.682541,10.554199 216.479568,11.807150 220.751526,12.780289 
	C221.071777,12.983079 220.999695,12.997968 220.992310,12.961910 
	C222.189178,14.272289 223.926697,14.178734 225.772064,14.779499 
	C226.066711,14.969448 226.006256,14.990082 226.012405,14.958738 
	C226.633209,16.515526 228.184845,16.441566 229.798462,16.917038 
	C241.761948,21.661526 251.714691,29.010206 261.762177,36.843376 
	C262.243896,37.272224 262.463989,37.493317 262.886780,37.840603 
	C263.071014,37.985123 263.005585,37.994884 263.007294,37.961861 
	C263.213165,38.194233 263.437256,38.441727 263.874786,38.829842 
	C264.071136,38.985840 264.007660,38.993790 264.015869,38.962883 
	C264.441528,39.601387 264.825867,40.300407 265.825195,40.834778 
	C266.071136,41.000523 265.994263,41.004150 265.992157,40.965729 
	C266.206268,41.191555 266.437805,41.441730 266.876587,41.846489 
	C267.070709,42.013199 266.989105,42.010208 266.989990,41.969383 
	C267.972443,43.780289 269.494873,44.966976 271.761566,45.759544 
	C272.040527,45.937565 272.000000,45.999847 272.019501,45.968979 
	C272.218658,46.212688 272.432037,46.457935 272.872559,46.823219 
	C273.065979,46.972576 273.006378,46.993538 273.016815,46.963722 
	C273.212982,47.207623 273.429810,47.453941 273.871857,47.824989 
	C274.065979,47.977116 274.005859,47.994110 274.014252,47.964020 
	C274.210327,48.205585 274.427795,48.450836 274.870117,48.819981 
	C275.065247,48.970280 275.001495,48.997982 275.027771,48.975201 
	C276.254120,51.071011 277.294342,53.315628 279.798462,54.811512 
	C280.072205,55.001286 279.996521,55.004097 279.994904,54.966270 
	C280.207916,55.191875 280.437317,55.441765 280.877136,55.841133 
	C281.072754,56.004192 280.996735,56.003773 280.996735,55.965775 
	C281.207825,56.191078 281.434967,56.439701 281.875153,56.832169 
	C282.072205,56.990601 282.005127,56.995331 282.007690,56.961815 
	C282.204620,57.200466 282.426483,57.447968 282.872589,57.824524 
	C283.069336,57.978245 283.006866,57.996719 283.025848,57.970257 
	C283.924438,59.137962 284.006165,60.870430 285.801514,61.808128 
	C286.071838,61.987118 286.005676,61.995312 286.007324,61.962029 
	C286.212921,62.193851 286.436707,62.441101 286.874146,62.828201 
	C287.070648,62.983509 287.006683,62.993340 287.011841,62.961411 
	C287.206207,63.201633 287.424835,63.447617 287.868958,63.818077 
	C288.065002,63.968719 288.005829,63.994484 288.019714,63.965347 
	C288.303253,64.261162 288.563049,64.593811 288.938721,65.224777 
	C289.064453,65.515388 288.990631,65.510849 288.992310,65.473907 
	C289.099487,65.865112 289.294800,66.247299 289.826599,66.797684 
	C290.073120,67.011826 290.007172,66.998817 290.018433,66.967155 
	C290.421814,67.415527 290.487213,68.023148 290.869507,68.807999 
	C291.065796,69.032349 290.981720,69.013603 290.990173,68.971375 
	C291.408295,69.400604 291.487396,70.006508 291.871124,70.790085 
	C292.075592,71.008492 292.002228,70.997513 292.007843,70.960854 
	C293.069977,72.005470 293.619537,73.444832 294.832794,74.799133 
	C295.068634,75.016273 294.984863,75.013367 294.985443,74.971451 
	C295.202271,75.189484 295.432861,75.436089 295.873840,75.829346 
	C296.071838,75.987473 296.009399,75.997658 296.025208,75.970261 
	C296.427979,76.422554 296.487000,77.028831 296.870605,77.808182 
	C297.066254,78.031044 296.982025,78.013596 296.989807,77.971313 
	C297.647797,78.744865 297.883759,79.811340 298.837769,80.790878 
	C299.071167,80.997177 299.006866,80.996399 299.016968,80.965874 
	C299.354919,81.342850 299.517334,81.808228 299.610016,82.699234 
	C306.995544,95.181786 311.718475,108.344048 315.662109,122.255844 
	C316.971436,131.411499 320.321686,139.837601 319.999969,149.273865 
	C319.999969,150.814484 319.999969,151.935379 319.999969,153.477722 
	C319.999969,154.461899 319.999969,155.024628 319.999969,156.010330 
	C319.999969,159.539825 319.999969,162.646347 319.999969,166.174149 
	C319.999969,167.433884 319.999969,168.272354 319.999969,169.526276 
	C319.999969,171.317093 319.999969,172.692474 319.999939,174.476151 
	C320.057343,178.401154 319.838501,181.885727 318.901428,185.662842 
z"/>
<path fill="#5074B8" opacity="1.000000" stroke="none" 
	d="
M319.440125,150.173767 
	C318.604492,140.764252 316.857941,131.780441 314.982269,122.408875 
	C315.179810,121.811508 315.362305,121.624283 315.843262,121.691544 
	C317.906708,126.253479 318.306671,130.858978 319.027863,135.388992 
	C319.205048,136.501862 318.896667,137.727097 320.605774,138.177750 
	C321.000000,141.692902 321.000000,145.385818 321.000000,149.539368 
	C320.637268,150.352356 320.202393,150.480743 319.440125,150.173767 
z"/>
<path fill="#4D6DA8" opacity="1.000000" stroke="none" 
	d="
M319.148804,185.697876 
	C316.257538,182.675827 319.411438,179.248215 318.986877,175.437820 
	C319.427795,174.661850 319.875000,174.508240 320.696747,174.781067 
	C321.000000,178.030594 321.000000,181.061188 321.000000,184.545898 
	C320.181183,183.881592 319.837128,185.127548 319.148804,185.697876 
z"/>
<path fill="#000000" opacity="1.000000" stroke="none" 
	d="
M139.399994,321.000000 
	C138.979309,319.481506 139.150772,317.991882 140.782242,317.355316 
	C142.161636,316.817139 144.026001,316.410156 144.900284,317.548859 
	C146.042969,319.037170 143.083344,318.956909 143.087677,320.681976 
	C141.933334,321.000000 140.866653,321.000000 139.399994,321.000000 
z"/>
<path fill="#4D86E8" opacity="1.000000" stroke="none" 
	d="
M319.523987,156.422577 
	C319.504913,155.621017 319.462982,155.210129 319.439209,154.489639 
	C319.676086,153.759659 320.022278,153.557358 320.747925,153.786499 
	C321.000000,159.022095 321.000000,164.044189 321.000000,169.533142 
	C320.676727,170.352875 320.278198,170.464920 319.612122,170.103119 
	C319.407074,169.122726 319.405029,168.409363 319.448639,167.341827 
	C319.506042,163.596191 319.498383,160.204712 319.523987,156.422577 
z"/>
<path fill="#5378C4" opacity="1.000000" stroke="none" 
	d="
M169.532059,1.000000 
	C168.307037,3.633795 165.792374,1.939358 163.706039,2.042350 
	C159.929031,2.228804 156.127625,1.920954 152.168198,1.409738 
	C157.688034,1.000000 163.376083,1.000000 169.532059,1.000000 
z"/>
<path fill="#120E26" opacity="1.000000" stroke="none" 
	d="
M1.000000,143.428467 
	C4.454925,144.776047 2.560963,147.786850 2.578023,150.758484 
	C1.441183,151.013275 1.587397,150.110123 1.184942,149.216995 
	C1.000000,147.285645 1.000000,145.571289 1.000000,143.428467 
z"/>
<path fill="#334050" opacity="1.000000" stroke="none" 
	d="
M1.000000,149.444168 
	C2.002187,149.095413 2.116642,149.896072 2.383333,150.913315 
	C2.490436,151.703751 2.516933,152.220718 2.534626,153.137939 
	C2.317421,154.428818 2.109021,155.319427 1.862084,156.500854 
	C1.745153,157.059082 1.666758,157.326508 1.294182,157.296967 
	C1.000000,154.629440 1.000000,152.258896 1.000000,149.444168 
z"/>
<path fill="#000000" opacity="1.000000" stroke="none" 
	d="
M177.375000,321.000000 
	C177.315536,319.874054 176.420975,318.081024 178.041107,317.732361 
	C179.767059,317.360992 179.809677,319.057648 180.006775,320.642151 
	C179.250000,321.000000 178.500000,321.000000 177.375000,321.000000 
z"/>
<path fill="#385DA4" opacity="1.000000" stroke="none" 
	d="
M319.263367,170.250198 
	C319.761566,169.882339 320.113983,169.928589 320.733215,169.987427 
	C321.000000,171.388885 321.000000,172.777786 321.000000,174.583328 
	C320.567200,175.006592 320.134399,175.013184 319.376770,175.021454 
	C319.073792,173.570175 319.095673,172.117249 319.263367,170.250198 
z"/>
<path fill="#2F4262" opacity="1.000000" stroke="none" 
	d="
M155.661484,320.414307 
	C158.671127,320.159790 161.430832,320.139709 164.647644,320.173645 
	C165.255615,320.379242 165.406464,320.530792 165.278656,320.841156 
	C162.299988,321.000000 159.599976,321.000000 156.449982,321.000000 
	C155.803848,320.882904 155.607712,320.765839 155.661484,320.414307 
z"/>
<path fill="#385DA4" opacity="1.000000" stroke="none" 
	d="
M321.000000,153.599976 
	C320.658417,154.052811 320.316803,154.105621 319.716309,154.169220 
	C319.320953,153.048676 319.184509,151.917297 319.111328,150.358276 
	C319.580109,149.949051 319.985596,149.967468 320.695557,149.992950 
	C321.000000,151.066650 321.000000,152.133301 321.000000,153.599976 
z"/>
<path fill="#495E80" opacity="1.000000" stroke="none" 
	d="
M165.428467,321.000000 
	C165.000000,321.000000 165.047638,320.612823 165.076202,320.420227 
	C166.815125,320.140533 168.525497,320.053375 170.659973,320.035522 
	C171.261215,320.271912 171.438339,320.439087 171.307739,320.803101 
	C169.285645,321.000000 167.571289,321.000000 165.428467,321.000000 
z"/>
<path fill="#3C4354" opacity="1.000000" stroke="none" 
	d="
M1.716855,164.808609 
	C1.850536,166.256866 1.859836,167.305679 1.816616,168.744461 
	C1.609629,169.266159 1.455162,169.397903 1.150347,169.264816 
	C1.000000,167.933334 1.000000,166.866653 1.000000,165.399994 
	C1.197491,164.803040 1.394982,164.606094 1.716855,164.808609 
z"/>
<path fill="#8FA9CC" opacity="1.000000" stroke="none" 
	d="
M171.375000,321.000000 
	C171.000000,321.000000 170.960449,320.544647 171.022278,320.324707 
	C171.994308,320.179199 172.904541,320.253601 173.907379,320.664001 
	C173.250000,321.000000 172.500000,321.000000 171.375000,321.000000 
z"/>
<path fill="#6C81A2" opacity="1.000000" stroke="none" 
	d="
M150.375000,321.000000 
	C150.378677,319.770813 151.387817,320.137848 152.579681,320.160706 
	C153.155441,320.315704 153.394211,320.424225 153.316483,320.766357 
	C152.250000,321.000000 151.500000,321.000000 150.375000,321.000000 
z"/>
<path fill="#606A7A" opacity="1.000000" stroke="none" 
	d="
M1.000000,169.375000 
	C1.000000,169.000000 1.378638,169.088364 1.571367,169.111389 
	C1.705264,169.991028 1.646432,170.847626 1.293800,171.852112 
	C1.000000,171.250000 1.000000,170.500000 1.000000,169.375000 
z"/>
<path fill="#4B5F7F" opacity="1.000000" stroke="none" 
	d="
M153.375000,321.000000 
	C153.000000,321.000000 152.963898,320.602875 152.940292,320.405029 
	C153.666153,320.169830 154.415604,320.132416 155.538239,320.137451 
	C155.911407,320.179901 155.973129,320.588074 155.986572,320.794037 
	C155.250000,321.000000 154.500000,321.000000 153.375000,321.000000 
z"/>
<path fill="#192230" opacity="1.000000" stroke="none" 
	d="
M1.874238,164.858276 
	C1.841237,165.208054 1.425824,165.082993 1.212912,165.041504 
	C1.000000,164.250000 1.000000,163.500000 1.000000,162.375000 
	C1.732494,162.680618 1.945793,163.549011 1.874238,164.858276 
z"/>
<path fill="#192230" opacity="1.000000" stroke="none" 
	d="
M1.000000,157.375000 
	C1.000000,157.000000 1.416408,156.911316 1.619977,156.851501 
	C1.697401,157.687607 1.571255,158.583557 1.222555,159.739746 
	C1.000000,159.250000 1.000000,158.500000 1.000000,157.375000 
z"/>
<path fill="#C166EC" opacity="1.000000" stroke="none" 
	d="
M144.694611,7.409863 
	C145.769424,7.119993 146.514069,7.027497 147.633148,6.977806 
	C159.894363,7.049994 171.768051,6.757443 183.591507,8.764579 
	C196.896179,11.023165 209.814621,14.427833 222.602539,19.880449 
	C223.577530,20.063925 224.129288,20.226793 224.881378,20.600445 
	C227.997253,22.903683 231.369446,24.090593 234.914078,25.726978 
	C277.853943,50.176105 304.218964,86.410118 312.677887,134.670258 
	C324.198425,200.397400 294.254395,264.304474 235.831818,296.442810 
	C185.327393,324.225372 133.874298,323.056213 82.717361,295.716278 
	C82.365692,295.654327 82.344833,295.646454 82.338104,295.638123 
	C73.377167,293.011902 67.257820,286.308899 60.277309,280.235657 
	C60.033077,279.976410 60.003204,279.997559 60.013554,279.982635 
	C59.853142,279.815247 59.682381,279.662781 59.263535,279.272888 
	C59.015453,279.035461 59.019249,278.982697 58.992935,278.985413 
	C51.610062,274.629456 45.408375,269.115753 41.263062,261.089172 
	C41.124104,260.449280 41.000393,260.191040 40.563713,259.894287 
	C36.787724,258.039581 35.443813,254.501007 33.513718,251.006195 
	C33.398594,250.675079 33.390629,250.629929 33.369148,250.620926 
	C23.515329,235.285294 15.429513,219.205612 10.676114,201.480759 
	C-9.087590,127.784248 27.959602,50.284416 97.728348,19.573376 
	C105.985634,15.938659 114.464699,13.075611 123.595627,10.930067 
	C130.818100,10.074400 137.519409,8.399313 144.694611,7.409863 
z"/>
<path fill="#120E26" opacity="1.000000" stroke="none" 
	d="
M41.082359,261.122437 
	C47.003365,266.629608 52.872570,272.497284 58.854202,278.676514 
	C57.872116,279.122528 56.658363,279.012268 56.083099,280.672943 
	C55.273846,280.652252 54.197327,280.521790 53.851604,279.949738 
	C51.084160,275.370331 47.145794,272.043762 42.738811,269.189056 
	C39.620667,267.169220 38.909119,264.648224 41.082359,261.122437 
z"/>
<path fill="#120E26" opacity="1.000000" stroke="none" 
	d="
M60.076481,280.353821 
	C67.323586,285.042664 74.220345,290.681244 82.153366,295.351074 
	C77.038971,296.353180 72.013557,296.457947 69.736801,290.194061 
	C66.304993,291.251099 66.965065,287.603821 65.447037,286.460022 
	C65.183601,286.261536 64.970123,285.935577 64.678673,285.844849 
	C61.240677,284.774719 61.237919,284.783569 60.076481,280.353821 
z"/>
<path fill="#120E26" opacity="1.000000" stroke="none" 
	d="
M33.311066,251.051971 
	C35.647518,253.498245 37.896439,256.321411 40.254883,259.472961 
	C37.801594,260.118896 32.789597,264.511505 35.228424,256.516266 
	C35.621464,255.227768 32.477055,253.766220 33.311066,251.051971 
z"/>
<path fill="#120E26" opacity="1.000000" stroke="none" 
	d="
M7.879387,207.255035 
	C7.714071,206.492218 7.344645,205.884232 7.515203,205.562576 
	C8.108413,204.443954 8.565089,205.447327 8.641299,205.864655 
	C8.811262,206.795380 9.124643,208.301544 8.691333,208.611694 
	C7.868101,209.200943 8.130794,207.990219 7.879387,207.255035 
z"/>
<path fill="#120E26" opacity="1.000000" stroke="none" 
	d="
M55.994339,281.003906 
	C56.404320,281.431549 56.820560,281.854736 57.236794,282.277924 
	C57.112518,282.366119 56.886585,282.539612 56.878689,282.530182 
	C56.595562,282.192719 56.332806,281.838196 56.039482,281.236664 
	C56.011749,280.987305 56.000595,280.999390 55.994339,281.003906 
z"/>
<path fill="#120E26" opacity="1.000000" stroke="none" 
	d="
M31.612642,255.257141 
	C31.456514,255.136597 31.433084,254.934464 31.409651,254.732330 
	C31.521544,254.880066 31.633442,255.027802 31.612642,255.257141 
z"/>
<path fill="#120E26" opacity="1.000000" stroke="none" 
	d="
M10.649797,214.736938 
	C10.635185,214.987900 10.497012,215.125824 10.358841,215.263763 
	C10.414640,215.050476 10.470438,214.837173 10.649797,214.736938 
z"/>
<path fill="#120E26" opacity="1.000000" stroke="none" 
	d="
M9.595407,212.240540 
	C9.205917,211.704208 9.214877,211.530289 9.595407,212.240540 
z"/>
<path fill="#120E26" opacity="1.000000" stroke="none" 
	d="
M79.596756,298.608368 
	C79.483795,298.694550 79.421944,298.384552 79.421944,298.384552 
	C79.421944,298.384552 79.709709,298.522186 79.596756,298.608368 
z"/>
<path fill="#120E26" opacity="1.000000" stroke="none" 
	d="
M59.112724,279.257660 
	C59.306705,279.183014 59.597958,279.330536 59.956558,279.722900 
	C59.683037,279.921112 59.411736,279.758484 59.112724,279.257660 
z"/>
<path fill="#5172B7" opacity="1.000000" stroke="none" 
	d="
M316.099396,121.544846 
	C315.951019,121.955513 315.760315,121.965004 315.283447,121.986618 
	C310.731964,108.826035 306.298523,95.722145 299.227417,83.328415 
	C299.306763,82.765030 299.464111,82.539307 299.889587,82.627304 
	C304.826294,88.309410 307.077209,95.000496 309.720673,101.373299 
	C312.363525,107.744606 314.941681,114.236931 316.099396,121.544846 
z"/>
<path fill="#5E7AB7" opacity="1.000000" stroke="none" 
	d="
M220.958252,12.623033 
	C216.718811,13.378141 213.281525,10.709635 209.208908,9.206903 
	C212.954086,10.032103 216.899414,11.147544 220.958252,12.623033 
z"/>
<path fill="#5474B4" opacity="1.000000" stroke="none" 
	d="
M279.943481,54.685089 
	C276.991486,54.398125 275.793823,51.872448 274.752411,49.223804 
	C277.811981,49.728657 277.873169,52.875168 279.943481,54.685089 
z"/>
<path fill="#5474B4" opacity="1.000000" stroke="none" 
	d="
M271.960602,45.608727 
	C269.039978,46.868469 268.423279,44.049385 266.942444,42.297226 
	C268.620819,43.045666 270.250732,44.162781 271.960602,45.608727 
z"/>
<path fill="#5E7AB7" opacity="1.000000" stroke="none" 
	d="
M225.966537,14.607981 
	C224.060074,15.842763 222.569855,14.683748 221.011108,13.308645 
	C222.832901,12.549838 224.303009,13.570527 225.966537,14.607981 
z"/>
<path fill="#5474B4" opacity="1.000000" stroke="none" 
	d="
M295.039124,74.628967 
	C292.976410,74.854546 292.951965,72.837990 292.021179,71.275864 
	C294.861786,70.359543 294.074219,73.078644 295.039124,74.628967 
z"/>
<path fill="#5474B4" opacity="1.000000" stroke="none" 
	d="
M285.943542,61.676888 
	C283.652710,62.115623 283.350830,60.042717 282.769592,58.245106 
	C284.987305,58.259987 284.843109,60.265087 285.943542,61.676888 
z"/>
<path fill="#5E7AB7" opacity="1.000000" stroke="none" 
	d="
M229.905746,16.723539 
	C228.301453,17.687496 227.033813,16.651775 225.903152,15.238614 
	C227.235870,15.444330 228.453201,15.961268 229.905746,16.723539 
z"/>
<path fill="#5474B4" opacity="1.000000" stroke="none" 
	d="
M299.058228,80.655334 
	C297.217407,81.282318 297.300873,79.696350 296.906067,78.294891 
	C298.038696,78.415962 299.061371,78.918694 299.058228,80.655334 
z"/>
<path fill="#5474B4" opacity="1.000000" stroke="none" 
	d="
M265.992035,40.702744 
	C264.764313,41.440197 264.218842,40.551716 263.856781,39.283600 
	C264.653717,39.422970 265.283325,39.913967 265.992035,40.702744 
z"/>
<path fill="#5474B4" opacity="1.000000" stroke="none" 
	d="
M291.041260,68.702332 
	C290.164856,68.956123 289.787384,68.356895 289.815491,67.250992 
	C290.830353,67.090424 291.027771,67.659775 291.041260,68.702332 
z"/>
<path fill="#5474B4" opacity="1.000000" stroke="none" 
	d="
M292.384399,70.751999 
	C291.290070,70.858727 291.005188,70.266678 290.909149,69.257996 
	C291.563477,69.451256 292.128326,69.973381 292.384399,70.751999 
z"/>
<path fill="#5474B4" opacity="1.000000" stroke="none" 
	d="
M297.044983,77.701965 
	C296.113190,77.972069 295.726166,77.319374 295.760529,76.230865 
	C296.842896,76.093605 297.031769,76.665581 297.044983,77.701965 
z"/>
<path fill="#5474B4" opacity="1.000000" stroke="none" 
	d="
M300.103577,82.625916 
	C299.989777,82.950539 299.821808,82.960045 299.401611,82.980148 
	C298.961670,82.516670 298.773926,82.042595 298.806610,81.251930 
	C299.776611,81.089981 300.017639,81.622604 300.103577,82.625916 
z"/>
<path fill="#5474B4" opacity="1.000000" stroke="none" 
	d="
M287.010040,62.711441 
	C286.534210,63.312874 286.097382,63.211128 285.884338,62.304634 
	C286.322479,62.098953 286.635956,62.269165 287.010040,62.711441 
z"/>
<path fill="#5474B4" opacity="1.000000" stroke="none" 
	d="
M289.980408,66.699158 
	C289.447510,67.100883 289.035370,66.844566 288.914307,65.841629 
	C289.291931,65.753479 289.589813,66.069992 289.980408,66.699158 
z"/>
<path fill="#5474B4" opacity="1.000000" stroke="none" 
	d="
M262.985870,37.745106 
	C262.733704,37.888821 262.396423,37.792522 262.050659,37.364513 
	C262.328400,37.190235 262.614563,37.347664 262.985870,37.745106 
z"/>
<path fill="#5474B4" opacity="1.000000" stroke="none" 
	d="
M264.017456,38.708740 
	C263.537354,39.287106 263.102112,39.180893 262.886902,38.299335 
	C263.327240,38.096436 263.645508,38.264038 264.017456,38.708740 
z"/>
<path fill="#5474B4" opacity="1.000000" stroke="none" 
	d="
M295.989166,75.725845 
	C295.693970,75.871788 295.316132,75.756111 294.962158,75.284981 
	C295.292847,75.107765 295.599670,75.285995 295.989166,75.725845 
z"/>
<path fill="#5474B4" opacity="1.000000" stroke="none" 
	d="
M289.047424,65.155930 
	C288.589752,65.255486 288.115082,64.995575 287.836975,64.335938 
	C288.365845,64.222961 288.698120,64.509712 289.047424,65.155930 
z"/>
<path fill="#5474B4" opacity="1.000000" stroke="none" 
	d="
M288.005432,63.700291 
	C287.528168,64.360222 287.089478,64.270493 286.882874,63.314903 
	C287.326630,63.096939 287.636261,63.264400 288.005432,63.700291 
z"/>
<path fill="#5474B4" opacity="1.000000" stroke="none" 
	d="
M266.986633,41.750900 
	C266.691376,41.873440 266.312042,41.733685 265.961365,41.260616 
	C266.294220,41.114403 266.598389,41.301502 266.986633,41.750900 
z"/>
<path fill="#5474B4" opacity="1.000000" stroke="none" 
	d="
M283.008728,57.707199 
	C282.539642,58.318863 282.112244,58.219200 281.898560,57.304302 
	C282.322876,57.097584 282.635529,57.266869 283.008728,57.707199 
z"/>
<path fill="#5474B4" opacity="1.000000" stroke="none" 
	d="
M273.029114,46.693596 
	C272.510101,47.338882 272.047150,47.244125 271.857635,46.315315 
	C272.356750,46.096951 272.674530,46.255787 273.029114,46.693596 
z"/>
<path fill="#5474B4" opacity="1.000000" stroke="none" 
	d="
M274.013794,47.705124 
	C273.530518,48.314831 273.094269,48.215157 272.891968,47.307053 
	C273.338715,47.100311 273.650146,47.266720 274.013794,47.705124 
z"/>
<path fill="#5474B4" opacity="1.000000" stroke="none" 
	d="
M275.011475,48.699158 
	C274.531342,49.344471 274.095795,49.252319 273.890533,48.314301 
	C274.334351,48.098637 274.646027,48.263336 275.011475,48.699158 
z"/>
<path fill="#5474B4" opacity="1.000000" stroke="none" 
	d="
M282.001770,56.721802 
	C281.670898,56.876625 281.269592,56.762653 280.932495,56.288227 
	C281.308258,56.102852 281.619812,56.277927 282.001770,56.721802 
z"/>
<path fill="#5474B4" opacity="1.000000" stroke="none" 
	d="
M280.995300,55.738289 
	C280.677490,55.876026 280.282196,55.747860 279.940125,55.274071 
	C280.301483,55.109756 280.609650,55.291073 280.995300,55.738289 
z"/>
<path fill="#6E8BC7" opacity="1.000000" stroke="none" 
	d="
M307.765961,222.246918 
	C309.123474,218.490738 310.335999,215.032425 311.745178,211.276001 
	C312.143372,210.857819 312.344971,210.737762 312.829559,210.826904 
	C312.728516,215.120926 310.761871,218.655563 309.013367,222.660065 
	C308.636383,223.155304 308.433563,223.317062 307.846558,223.540833 
	C307.462402,223.602875 307.387756,223.311707 307.528381,223.258636 
	C307.652985,222.985306 307.636993,222.765030 307.765961,222.246918 
z"/>
<path fill="#5777B9" opacity="1.000000" stroke="none" 
	d="
M314.310089,208.224182 
	C312.072479,204.285660 315.023926,200.968414 316.507568,197.255493 
	C316.097229,200.774017 315.338837,204.345245 314.310089,208.224182 
z"/>
<path fill="#5B77AE" opacity="1.000000" stroke="none" 
	d="
M291.369476,253.984772 
	C290.615753,251.166473 292.940125,249.723114 294.711853,247.898468 
	C294.868256,250.491898 293.411530,252.269348 291.369476,253.984772 
z"/>
<path fill="#6986BE" opacity="1.000000" stroke="none" 
	d="
M304.287018,233.243835 
	C302.901154,230.490921 304.700653,228.454193 306.715698,226.468719 
	C307.081055,229.037033 305.329437,230.824402 304.287018,233.243835 
z"/>
<path fill="#5B77AE" opacity="1.000000" stroke="none" 
	d="
M295.259521,247.927582 
	C294.638916,246.850677 295.101288,245.984299 296.477356,245.313477 
	C296.367767,246.098526 295.939056,246.941193 295.259521,247.927582 
z"/>
<path fill="#5777B9" opacity="1.000000" stroke="none" 
	d="
M313.431030,210.846313 
	C312.917511,211.025604 312.722443,211.015076 312.234558,210.991226 
	C311.984314,209.825989 312.218048,208.763885 313.671326,208.297943 
	C313.948761,209.217865 313.849091,209.937180 313.431030,210.846313 
z"/>
<path fill="#5B77AE" opacity="1.000000" stroke="none" 
	d="
M290.320557,255.926147 
	C289.804932,255.259659 289.693390,254.538834 290.699463,253.971848 
	C290.927338,254.624084 290.783905,255.241241 290.320557,255.926147 
z"/>
<path fill="#6986BE" opacity="1.000000" stroke="none" 
	d="
M307.312744,226.290833 
	C306.587860,225.932846 306.609833,225.316315 307.559265,224.587616 
	C307.911102,224.979233 307.768311,225.498154 307.312744,226.290833 
z"/>
<path fill="#6986BE" opacity="1.000000" stroke="none" 
	d="
M307.435822,223.940216 
	C307.681183,223.477173 307.899994,223.351471 308.479004,223.109650 
	C308.676910,223.342667 308.514618,223.691803 308.191040,224.294342 
	C307.822906,224.457657 307.616058,224.367599 307.435822,223.940216 
z"/>
<path fill="#AB67C8" opacity="1.000000" stroke="none" 
	d="
M222.790497,19.649780 
	C222.360703,20.577747 221.584869,20.660650 220.749496,20.291006 
	C198.715500,10.541045 175.587357,6.918187 151.626831,7.900229 
	C150.655853,7.940025 149.670364,7.625991 148.349609,7.248711 
	C173.963928,4.478715 198.750229,8.983495 222.790497,19.649780 
z"/>
<path fill="#AB67C8" opacity="1.000000" stroke="none" 
	d="
M144.603149,7.148835 
	C144.694794,8.009695 144.165054,8.630395 143.283997,8.754356 
	C137.040649,9.632790 130.793793,10.486223 124.265289,11.136156 
	C130.492798,8.473101 137.384430,8.027818 144.603149,7.148835 
z"/>
<path fill="#AB67C8" opacity="1.000000" stroke="none" 
	d="
M235.035126,25.582386 
	C231.387390,25.609919 228.159912,23.912222 225.165192,21.150505 
	C228.652817,21.608431 231.614792,23.724001 235.035126,25.582386 
z"/>
<path fill="#385DA4" opacity="1.000000" stroke="none" 
	d="
M319.411011,156.467529 
	C320.580688,159.423553 320.140594,162.858124 319.669922,166.638062 
	C319.421295,163.626144 319.348267,160.264648 319.411011,156.467529 
z"/>
<path fill="#000000" opacity="1.000000" stroke="none" 
	d="
M113.001022,313.000977 
	C113.091019,312.100830 112.724464,310.877136 114.236526,310.898773 
	C114.605446,310.904053 115.253998,311.420105 115.280083,311.741394 
	C115.375481,312.916718 114.366386,312.789032 113.302246,312.952545 
	C112.997169,312.997467 113.000000,313.000000 113.001022,313.000977 
z"/>
<path fill="#000000" opacity="1.000000" stroke="none" 
	d="
M4.994347,129.004974 
	C5.835134,129.157944 6.614046,129.435349 6.695864,130.439590 
	C6.740329,130.985336 6.296611,131.542068 5.841552,131.228287 
	C5.413186,130.932922 5.305325,130.172714 5.033904,129.302521 
	C5.011350,128.988022 5.000189,128.999756 4.994347,129.004974 
z"/>
<path fill="#000000" opacity="1.000000" stroke="none" 
	d="
M5.562467,135.169342 
	C5.259080,134.674164 5.366801,134.724365 5.562467,135.169342 
z"/>
<path fill="#6986BE" opacity="1.000000" stroke="none" 
	d="
M307.764587,222.072189 
	C307.889984,222.161880 307.869049,222.374710 307.758545,222.896561 
	C307.596802,222.983948 307.497589,222.766266 307.464386,222.538925 
	C307.449097,222.434128 307.562958,222.310440 307.764587,222.072189 
z"/>
<path fill="#190E13" opacity="1.000000" stroke="none" 
	d="
M256.867554,152.871017 
	C244.401642,164.578491 227.999359,165.316177 215.957855,154.960907 
	C204.653809,145.239822 202.370453,128.403183 210.677094,116.022865 
	C220.151657,101.901886 238.964569,98.591019 252.888046,108.594200 
	C266.352234,118.267418 269.014099,137.444534 258.727356,150.707077 
	C258.217651,151.364258 257.650421,151.976791 256.867554,152.871017 
z"/>
<path fill="#10070F" opacity="1.000000" stroke="none" 
	d="
M77.922699,161.353760 
	C62.232727,157.511581 52.640942,141.940414 55.853947,126.336349 
	C59.099476,110.574318 75.327972,100.611435 89.617790,103.520561 
	C106.552307,106.968102 116.433052,122.610916 114.122841,136.133057 
	C111.033005,154.218658 95.220192,165.143509 77.922699,161.353760 
z"/>
<path fill="#190721" opacity="1.000000" stroke="none" 
	d="
M171.630920,153.068466 
	C171.287125,153.421570 171.176453,153.546310 171.056259,153.661072 
	C163.325638,161.042801 163.324371,161.043884 170.598450,168.619339 
	C171.584061,169.645782 173.189224,170.406281 171.567673,172.228333 
	C169.859573,174.147675 168.817139,172.914566 167.509109,171.723267 
	C165.078369,169.509476 163.272583,165.343216 160.304138,165.351288 
	C157.316528,165.359375 155.528610,169.548218 153.053070,171.731216 
	C151.949478,172.704391 151.025955,174.048264 149.315445,172.472610 
	C147.334396,170.647781 148.906967,169.678604 150.034653,168.487762 
	C156.835663,161.305939 156.825256,161.305038 150.194061,154.307693 
	C149.114243,153.168243 147.333603,152.199280 149.202637,150.264740 
	C151.088013,148.313263 152.048721,150.093903 153.236893,151.145035 
	C155.694382,153.319092 157.580444,157.562546 160.512238,157.328400 
	C162.937714,157.134689 165.025391,153.286911 167.367386,151.174149 
	C168.240051,150.386917 168.898376,148.605469 170.560547,149.654297 
	C171.625854,150.326508 172.940201,151.165726 171.630920,153.068466 
z"/>
<path fill="#FAEE66" opacity="1.000000" stroke="none" 
	d="
M222.046844,110.851105 
	C232.699448,105.186272 242.627029,105.858231 251.727753,113.174919 
	C259.535614,119.452164 262.587036,130.575668 259.601929,139.841110 
	C256.191101,150.427933 247.051605,157.529343 236.292145,157.952881 
	C225.982651,158.358688 216.159439,152.157913 212.025482,142.634796 
	C207.719894,132.716324 210.106720,121.450302 218.188629,113.794693 
	C219.269104,112.771210 220.536163,111.944710 222.046844,110.851105 
z"/>
<path fill="#FAEF65" opacity="1.000000" stroke="none" 
	d="
M86.644272,106.766205 
	C94.594574,108.568207 101.460434,111.388054 105.894821,118.713737 
	C110.573952,127.448479 111.181892,135.933090 106.520264,144.931747 
	C106.569588,145.347717 106.564438,145.431793 106.530724,145.457031 
	C105.514290,145.179153 105.589493,146.002594 105.210312,146.799042 
	C105.036430,147.070755 105.012749,147.009659 105.045097,147.014877 
	C104.240837,148.001312 103.547180,149.117554 102.496223,150.143188 
	C102.567894,150.457779 102.533218,150.546082 102.487961,150.560272 
	C102.002464,150.255081 101.617920,150.293915 101.444412,151.080811 
	C101.590218,151.409271 101.570580,151.498566 101.530060,151.519745 
	C97.356750,153.444489 93.712273,156.280975 89.000397,157.090683 
	C83.192116,158.088852 77.925545,156.797791 72.359711,154.285675 
	C71.980408,154.090317 71.921463,154.098145 71.912033,154.069946 
	C71.308121,153.147614 70.325470,152.823181 69.177979,152.203949 
	C68.919556,152.046478 68.981911,152.017776 68.977371,152.051788 
	C68.775848,151.802338 68.550095,151.544006 68.062698,151.199402 
	C67.829880,151.087936 67.923996,151.082687 67.921982,151.129776 
	C67.777802,150.844772 67.575249,150.556107 67.059326,150.204956 
	C66.816284,150.091919 66.916306,150.084473 66.915115,150.134613 
	C66.791451,149.851639 66.587585,149.577454 66.095139,149.210236 
	C65.538071,148.724579 65.198936,148.383041 64.804535,147.797363 
	C58.988445,138.471970 58.580994,129.157501 63.676613,119.213364 
	C63.821476,118.817162 63.923199,118.921089 63.857239,118.890488 
	C64.179398,118.732521 64.508057,118.517296 64.671417,117.914177 
	C64.689491,117.750465 64.803505,117.872108 64.738724,117.818581 
	C65.458977,117.723785 65.442947,116.999985 65.791183,116.180603 
	C65.978203,115.571144 66.126534,115.297249 66.638962,115.017975 
	C69.666527,112.331741 72.730324,110.178162 76.702995,108.995132 
	C77.010872,108.364876 77.253777,108.170570 77.799423,107.974205 
	C78.822952,107.315681 79.795258,107.616768 80.982407,107.233536 
	C81.982315,107.104988 82.663170,107.101089 83.675385,107.011078 
	C84.712021,106.421265 85.512573,106.506470 86.644272,106.766205 
z"/>
<path fill="#E4E078" opacity="1.000000" stroke="none" 
	d="
M72.173584,154.376953 
	C75.806465,152.877167 78.823463,155.757050 82.400963,156.183990 
	C89.267357,157.003433 94.798401,153.698212 101.115814,151.535095 
	C97.834488,154.814819 94.005959,157.735046 88.359299,157.819519 
	C85.549820,158.000381 83.145241,158.253708 80.412300,157.568420 
	C76.935043,158.067307 74.622208,156.442917 72.173584,154.376953 
z"/>
<path fill="#E4E078" opacity="1.000000" stroke="none" 
	d="
M63.526264,119.008865 
	C63.805691,119.471405 64.000038,120.225945 63.742779,120.764938 
	C59.512848,129.627365 60.410675,138.261841 64.764923,147.160828 
	C57.708736,138.452225 57.896259,128.964218 63.526264,119.008865 
z"/>
<path fill="#E4E078" opacity="1.000000" stroke="none" 
	d="
M106.759720,145.071518 
	C105.354828,142.337830 107.491119,139.860992 108.153442,137.251663 
	C109.733437,131.027130 107.374306,125.542770 106.001602,119.433014 
	C107.628662,121.307236 109.354843,123.530014 109.751556,126.729782 
	C111.067467,130.343674 110.306915,133.796860 110.166168,137.598755 
	C108.919579,140.259155 107.934715,142.527237 106.759720,145.071518 
z"/>
<path fill="#E4E078" opacity="1.000000" stroke="none" 
	d="
M76.472260,108.717102 
	C74.177834,111.358070 70.867912,113.101265 67.221031,114.904846 
	C68.285950,110.415482 72.370361,109.864044 76.472260,108.717102 
z"/>
<path fill="#D4CF6C" opacity="1.000000" stroke="none" 
	d="
M80.391518,157.739746 
	C82.479156,156.690903 84.915550,156.866699 87.653778,157.638306 
	C85.572487,159.819611 83.156403,159.309021 80.391518,157.739746 
z"/>
<path fill="#3B3A03" opacity="1.000000" stroke="none" 
	d="
M110.163437,137.679321 
	C109.892784,134.629227 109.881134,131.267365 109.895821,127.445145 
	C111.774757,130.364487 111.210190,133.860657 110.163437,137.679321 
z"/>
<path fill="#E4E078" opacity="1.000000" stroke="none" 
	d="
M102.834183,150.292557 
	C102.407494,148.920334 103.394699,148.088181 104.785454,147.172333 
	C104.886223,148.353455 104.071411,149.290070 102.834183,150.292557 
z"/>
<path fill="#E4E078" opacity="1.000000" stroke="none" 
	d="
M69.057800,152.328125 
	C70.086563,152.029526 71.219635,152.084793 71.835365,153.713165 
	C71.000412,153.564423 70.098228,153.087097 69.057800,152.328125 
z"/>
<path fill="#222206" opacity="1.000000" stroke="none" 
	d="
M86.776413,106.780701 
	C86.233658,107.023018 85.485611,107.066475 84.372162,107.017456 
	C84.777992,106.186188 85.621223,105.985413 86.776413,106.780701 
z"/>
<path fill="#222206" opacity="1.000000" stroke="none" 
	d="
M80.950470,107.050522 
	C80.433121,107.381248 79.564789,107.653603 78.351601,107.889420 
	C78.870995,107.565979 79.735229,107.279068 80.950470,107.050522 
z"/>
<path fill="#E4E078" opacity="1.000000" stroke="none" 
	d="
M105.295425,146.964218 
	C105.325760,146.574463 105.615082,146.078171 106.200699,145.532074 
	C106.182808,145.940735 105.868607,146.399200 105.295425,146.964218 
z"/>
<path fill="#E4E078" opacity="1.000000" stroke="none" 
	d="
M65.698975,116.035851 
	C65.692413,116.434982 65.418152,116.950836 64.851921,117.555054 
	C64.850388,117.146469 65.140823,116.649521 65.698975,116.035851 
z"/>
<path fill="#E4E078" opacity="1.000000" stroke="none" 
	d="
M64.347931,117.757980 
	C64.459091,117.945740 64.342697,118.262650 64.008789,118.719719 
	C63.900978,118.535629 64.010674,118.211388 64.347931,117.757980 
z"/>
<path fill="#E4E078" opacity="1.000000" stroke="none" 
	d="
M65.944946,149.334381 
	C66.151482,149.277863 66.425766,149.489594 66.806992,149.943039 
	C66.613510,149.990707 66.313103,149.796692 65.944946,149.334381 
z"/>
<path fill="#E4E078" opacity="1.000000" stroke="none" 
	d="
M66.908852,150.352692 
	C67.107117,150.291595 67.397957,150.491257 67.804382,150.933899 
	C67.613785,150.989059 67.307602,150.801254 66.908852,150.352692 
z"/>
<path fill="#E4E078" opacity="1.000000" stroke="none" 
	d="
M101.776924,151.321075 
	C101.545540,151.060532 101.676826,150.800888 102.213387,150.602417 
	C102.356186,150.847168 102.196495,151.066635 101.776924,151.321075 
z"/>
<path fill="#E4E078" opacity="1.000000" stroke="none" 
	d="
M67.922348,151.347565 
	C68.122459,151.269821 68.415039,151.451706 68.840218,151.859711 
	C68.653488,151.926270 68.334152,151.766724 67.922348,151.347565 
z"/>
</svg>